<svg id="visual" viewBox="0 0 1920 1080" width="1920" height="1080" xmlns="http://www.w3.org/2000/svg" xmlns:xlink="http://www.w3.org/1999/xlink" version="1.1"><rect x="0" y="0" width="1920" height="1080" fill="#001220"></rect><defs><linearGradient id="grad1_0" x1="43.8%" y1="100%" x2="100%" y2="0%"><stop offset="14.444444444444446%" stop-color="#001220" stop-opacity="1"></stop><stop offset="85.55555555555554%" stop-color="#001220" stop-opacity="1"></stop></linearGradient></defs><defs><linearGradient id="grad2_0" x1="0%" y1="100%" x2="56.3%" y2="0%"><stop offset="14.444444444444446%" stop-color="#001220" stop-opacity="1"></stop><stop offset="85.55555555555554%" stop-color="#001220" stop-opacity="1"></stop></linearGradient></defs><g transform="translate(1920, 1080)"><path d="M-972 0C-951.7 -133.8 -931.3 -267.6 -859.2 -355.9C-787.1 -444.2 -663.3 -486.9 -581.9 -581.9C-500.6 -677 -461.9 -824.3 -372 -898C-282.1 -971.7 -141 -971.9 0 -972L0 0Z" fill="#FBAE3C"></path></g><g transform="translate(0, 0)"><path d="M972 0C906.9 108.8 841.8 217.5 796.4 329.9C751 442.2 725.3 558.2 659.7 659.7C594.1 761.3 488.6 848.4 372 898C255.4 947.7 127.7 959.8 0 972L0 0Z" fill="#FBAE3C"></path></g></svg>